<?xml version="1.0" encoding="utf-8"?>
<!-- Generator: Adobe Illustrator 16.0.3, SVG Export Plug-In . SVG Version: 6.00 Build 0)  -->
<!DOCTYPE svg PUBLIC "-//W3C//DTD SVG 1.1//EN" "http://www.w3.org/Graphics/SVG/1.1/DTD/svg11.dtd">
<svg version="1.1" id="icons" xmlns="http://www.w3.org/2000/svg" xmlns:xlink="http://www.w3.org/1999/xlink" x="0px" y="0px"
	 width="397.757px" height="149.639px" viewBox="-54.485 -13.221 397.757 149.639"
	 enable-background="new -54.485 -13.221 397.757 149.639" xml:space="preserve">
<g>
	<g>
		<path id="path174_1_" fill="#FFFFFF" d="M-27.561,62.461l-2.878-2.875c-8.913-8.915-11.674-21.651-8.295-32.942
			c-8.912-2.015-15.567-9.98-15.567-19.502c0.003-11.042,8.956-19.996,19.994-19.996c9.938,0.006,18.179,7.257,19.728,16.756
			c10.787-2.529,22.594,0.408,31.005,8.825l1.146,1.147L2.819,28.625l-1.146-1.153c-4.792-4.779-12.547-4.779-17.343,0.01
			c-4.806,4.805-4.793,12.588-0.026,17.362l2.885,2.876L1.952,62.472L17.553,78.06L2.816,92.823L-12.81,77.217L-27.561,62.461"/>
		<path id="path176_1_" fill="#FFFFFF" d="M-11.057,45.967L4.559,30.36l14.756-14.742l2.879-2.875
			c8.879-8.875,21.537-11.669,32.785-8.367c1.349-9.731,9.7-17.236,19.805-17.236c11.039,0,19.998,8.948,19.992,19.995
			c0,10.145-7.56,18.534-17.36,19.828c3.219,11.205,0.412,23.766-8.405,32.597l-1.146,1.156L53.12,45.958l1.137-1.144
			c4.792-4.785,4.792-12.558,0.005-17.338c-4.774-4.771-12.517-4.782-17.326,0.021l-2.876,2.878l-14.76,14.75L3.693,60.717
			L-11.057,45.967"/>
		<path id="path184_1_" fill="#FFFFFF" d="M55.376,120.409c-11.347,3.491-24.198,0.745-33.179-8.236l-1.131-1.133l14.743-14.751
			l1.128,1.139c4.795,4.777,12.566,4.777,17.351,0.005c4.768-4.777,4.774-12.525-0.03-17.326l-2.881-2.892L36.63,62.461
			L21.05,46.863l14.759-14.741l15.568,15.579l14.739,14.76l2.9,2.9c8.475,8.481,11.408,20.403,8.773,31.259
			c9.708,1.37,17.179,9.72,17.179,19.812c0,11.033-8.958,19.986-19.99,19.986C65.299,136.418,57.227,129.548,55.376,120.409"/>
		<path id="path186_1_" fill="#FFFFFF" d="M49.627,78.962L34.063,94.557l-14.745,14.744l-2.891,2.897
			c-8.516,8.51-20.525,11.42-31.432,8.712c-2.035,8.886-9.991,15.5-19.489,15.509c-11.042,0-19.994-8.959-19.991-19.984
			c0-9.455,6.56-17.388,15.377-19.471c-2.791-10.959,0.103-23.048,8.673-31.625l1.127-1.131l14.759,14.751l-1.142,1.128
			c-4.784,4.792-4.784,12.542,0.003,17.348c4.803,4.797,12.595,4.785,17.365,0.02l2.887-2.897l14.745-14.745l15.585-15.604
			L49.627,78.962"/>
	</g>
	<g>
		<g>
			<path fill="#FFFFFF" d="M143.937,61.779c0,25.467,14.796,47.466,36.261,57.9l-30.692-84.087
				C145.927,43.594,143.937,52.454,143.937,61.779z"/>
			<path fill="#FFFFFF" d="M251.703,58.532c0-7.954-2.852-13.462-5.309-17.745c-3.259-5.301-6.314-9.792-6.314-15.09
				c0-5.914,4.492-11.42,10.804-11.42c0.294,0,0.563,0.036,0.842,0.054c-11.446-10.483-26.699-16.89-43.45-16.89
				c-22.473,0-42.247,11.531-53.754,28.998c1.509,0.046,2.928,0.074,4.138,0.074c6.726,0,17.145-0.817,17.145-0.817
				c3.469-0.2,3.882,4.89,0.419,5.298c0,0-3.484,0.415-7.369,0.614l23.436,69.692l14.082-42.228l-10.028-27.463
				c-3.465-0.199-6.745-0.615-6.745-0.615c-3.464-0.203-3.057-5.501,0.413-5.298c0,0,10.615,0.817,16.941,0.817
				c6.725,0,17.147-0.817,17.147-0.817c3.469-0.2,3.878,4.89,0.419,5.298c0,0-3.49,0.416-7.369,0.615l23.245,69.164l6.429-21.441
				C249.581,70.429,251.703,64.042,251.703,58.532z"/>
			<path fill="#FFFFFF" d="M209.398,67.403l-19.301,56.091c5.766,1.702,11.854,2.623,18.171,2.623
				c7.494,0,14.681-1.292,21.368-3.645c-0.176-0.278-0.329-0.572-0.46-0.886L209.398,67.403z"/>
			<path fill="#FFFFFF" d="M264.729,30.902c0.271,2.058,0.432,4.251,0.432,6.619c0,6.533-1.226,13.871-4.891,23.047l-19.65,56.826
				c19.13-11.159,31.987-31.886,31.987-55.615C272.613,50.594,269.753,40.073,264.729,30.902z"/>
			<path fill="#FFFFFF" d="M208.269-13.221c-41.348,0-74.993,33.644-74.993,75c0,41.357,33.646,75,74.993,75
				c41.352,0,75.004-33.643,75.004-75C283.272,20.423,249.62-13.221,208.269-13.221z M208.269,133.34
				c-39.458,0-71.559-32.104-71.559-71.561c0-39.462,32.101-71.56,71.559-71.56c39.457,0,71.561,32.097,71.561,71.56
				C279.829,101.236,247.726,133.34,208.269,133.34z"/>
		</g>
	</g>
</g>
</svg>
