<?xml version="1.0" encoding="utf-8"?>
<!-- Generator: Adobe Illustrator 16.0.3, SVG Export Plug-In . SVG Version: 6.00 Build 0)  -->
<!DOCTYPE svg PUBLIC "-//W3C//DTD SVG 1.1//EN" "http://www.w3.org/Graphics/SVG/1.1/DTD/svg11.dtd">
<svg version="1.1" id="Ebene_1" xmlns="http://www.w3.org/2000/svg" xmlns:xlink="http://www.w3.org/1999/xlink" x="0px" y="0px"
	 width="130px" height="130px" viewBox="0 0 130 130" enable-background="new 0 0 130 130" xml:space="preserve">
<path fill="#FFFFFF" d="M73.691,126.277c-4.739,4.74-12.428,4.74-17.169,0L3.935,73.691c-4.741-4.74-4.742-12.428,0-17.17
	L56.522,3.934c4.742-4.741,12.43-4.741,17.169,0l52.588,52.587c4.74,4.742,4.74,12.43,0,17.17L73.691,126.277z"/>
<g>
	<path fill="#2F2F2F" d="M44.32,66.476c0,1.472-0.229,2.75-0.687,3.837s-1.103,1.986-1.937,2.696
		c-0.833,0.711-1.831,1.242-2.991,1.594c-1.161,0.352-2.436,0.527-3.825,0.527c-0.686,0-1.442-0.028-2.268-0.086
		s-1.573-0.167-2.243-0.331V58.239c0.67-0.163,1.418-0.273,2.243-0.331c0.825-0.057,1.582-0.086,2.268-0.086
		c1.389,0,2.664,0.176,3.825,0.527c1.16,0.352,2.157,0.882,2.991,1.593c0.833,0.711,1.479,1.61,1.937,2.697
		C44.091,63.727,44.32,65.005,44.32,66.476z M35.078,73.046c2.255,0,3.938-0.576,5.05-1.728c1.112-1.153,1.667-2.767,1.667-4.843
		c0-2.075-0.556-3.689-1.667-4.841c-1.111-1.152-2.794-1.729-5.05-1.729c-0.67,0-1.189,0.008-1.557,0.024
		c-0.368,0.017-0.625,0.033-0.772,0.049v12.993c0.147,0.016,0.404,0.032,0.772,0.049S34.407,73.046,35.078,73.046z"/>
	<path fill="#2F2F2F" d="M47.85,74.982V57.994h10.37v2.035h-7.992v5.05h7.109v1.986h-7.109v5.883h8.604v2.035H47.85z"/>
	<path fill="#2F2F2F" d="M69.473,72.63c-0.164-0.394-0.381-0.892-0.65-1.497c-0.27-0.604-0.56-1.258-0.87-1.961
		c-0.311-0.701-0.642-1.425-0.992-2.169c-0.352-0.743-0.683-1.446-0.993-2.108c-0.311-0.662-0.601-1.254-0.871-1.777
		c-0.27-0.523-0.486-0.923-0.65-1.202c-0.18,1.929-0.327,4.017-0.441,6.264s-0.212,4.515-0.294,6.803h-2.329
		c0.065-1.471,0.139-2.954,0.221-4.449c0.082-1.496,0.175-2.967,0.282-4.412c0.106-1.447,0.221-2.856,0.343-4.229
		s0.257-2.672,0.404-3.898h2.084c0.441,0.719,0.915,1.569,1.422,2.55c0.506,0.98,1.013,2.006,1.52,3.076
		c0.506,1.071,0.996,2.142,1.471,3.212c0.474,1.07,0.907,2.047,1.3,2.929c0.392-0.882,0.825-1.858,1.299-2.929
		s0.964-2.142,1.471-3.212c0.507-1.07,1.013-2.096,1.521-3.076c0.506-0.981,0.98-1.831,1.422-2.55h2.084
		c0.555,5.475,0.972,11.137,1.249,16.989h-2.328c-0.082-2.288-0.18-4.556-0.294-6.803c-0.115-2.247-0.262-4.335-0.442-6.264
		c-0.163,0.278-0.379,0.678-0.649,1.202c-0.27,0.523-0.56,1.115-0.87,1.777c-0.31,0.662-0.642,1.365-0.993,2.108
		c-0.352,0.744-0.682,1.468-0.992,2.169c-0.311,0.703-0.601,1.357-0.87,1.961c-0.27,0.605-0.486,1.104-0.65,1.497H69.473z"/>
	<path fill="#2F2F2F" d="M82.514,66.476c0-1.454,0.216-2.737,0.649-3.849c0.433-1.111,1.021-2.039,1.765-2.782
		c0.745-0.744,1.611-1.303,2.6-1.68c0.988-0.375,2.038-0.563,3.15-0.563c1.095,0,2.128,0.188,3.101,0.563
		c0.972,0.376,1.827,0.936,2.562,1.68c0.736,0.744,1.32,1.671,1.753,2.782c0.434,1.112,0.65,2.395,0.65,3.849
		c0,1.455-0.217,2.737-0.65,3.849c-0.433,1.112-1.017,2.039-1.753,2.783c-0.734,0.743-1.59,1.304-2.562,1.679
		c-0.973,0.376-2.006,0.564-3.101,0.564c-1.112,0-2.162-0.188-3.15-0.564c-0.988-0.375-1.854-0.936-2.6-1.679
		c-0.743-0.744-1.332-1.671-1.765-2.783C82.729,69.213,82.514,67.931,82.514,66.476z M85.015,66.476c0,1.03,0.13,1.966,0.392,2.808
		s0.634,1.557,1.115,2.145c0.482,0.589,1.071,1.042,1.766,1.36c0.694,0.319,1.475,0.479,2.341,0.479s1.644-0.159,2.33-0.479
		c0.685-0.318,1.27-0.771,1.752-1.36c0.482-0.588,0.854-1.303,1.115-2.145c0.262-0.842,0.392-1.777,0.392-2.808
		c0-1.029-0.13-1.965-0.392-2.807c-0.261-0.841-0.633-1.557-1.115-2.145s-1.067-1.042-1.752-1.361
		c-0.687-0.318-1.464-0.478-2.33-0.478s-1.646,0.16-2.341,0.478c-0.694,0.319-1.283,0.772-1.766,1.361
		c-0.481,0.588-0.854,1.304-1.115,2.145C85.145,64.511,85.015,65.446,85.015,66.476z"/>
</g>
</svg>
