<?xml version="1.0" encoding="utf-8"?>
<!-- Generator: Adobe Illustrator 16.0.3, SVG Export Plug-In . SVG Version: 6.00 Build 0)  -->
<!DOCTYPE svg PUBLIC "-//W3C//DTD SVG 1.1//EN" "http://www.w3.org/Graphics/SVG/1.1/DTD/svg11.dtd">
<svg version="1.1" id="logo" xmlns="http://www.w3.org/2000/svg" xmlns:xlink="http://www.w3.org/1999/xlink" x="0px" y="0px"
	 width="120px" height="70px" viewBox="-8.276 0 120 70" enable-background="new -8.276 0 120 70" xml:space="preserve">
<g>
	<path fill="#FFFFFF" d="M15.8,47.5h-4.4v-2.85c0,0.867-0.725,1.642-2.174,2.324C7.774,47.658,5.8,48,3.3,48
		c-3.5,0-5.967-0.55-7.4-1.65c-1.434-1.1-2.149-3.115-2.149-6.05V29.65c0-2.434,0.75-4.184,2.25-5.25s4.017-1.601,7.55-1.601
		c1.9,0,3.658,0.25,5.275,0.75c1.615,0.5,2.441,1.284,2.475,2.351h0.1c-0.066-2.733-0.1-4.783-0.1-6.15V12.5h4.5L15.8,47.5
		L15.8,47.5z M11.3,41.15V29.2c0-2.167-2.217-3.25-6.65-3.25c-2.666,0-4.408,0.2-5.225,0.6C-1.391,26.95-1.8,27.834-1.8,29.2v11.95
		c0,1.367,0.458,2.332,1.375,2.896C0.491,44.615,2.05,44.9,4.25,44.9c2.466,0,4.258-0.283,5.375-0.854
		C10.741,43.482,11.3,42.518,11.3,41.15z"/>
	<path fill="#FFFFFF" d="M27.7,19.25h-4.5v-4.7h4.5V19.25z M27.7,47.5h-4.5V23.3h4.5V47.5z"/>
	<path fill="#FFFFFF" d="M56.148,23.3v26.5c0,3.433-0.957,5.741-2.875,6.925c-1.916,1.187-4.791,1.775-8.625,1.775
		c-3.435,0-6.216-0.184-8.351-0.55v-3.2c3.833,0.467,6.75,0.7,8.75,0.7c2.302,0,3.976-0.367,5.024-1.101
		c1.051-0.734,1.574-1.949,1.574-3.649v-5.8c-0.065,1.133-0.842,1.934-2.324,2.396c-1.483,0.469-3.176,0.7-5.074,0.7
		c-3.732,0-6.275-0.552-7.625-1.647c-1.35-1.103-2.025-3-2.025-5.699V30.8c0-2.866,0.775-4.916,2.325-6.149
		c1.55-1.233,4.093-1.851,7.625-1.851c4.2,0,6.666,0.95,7.399,2.851V23.3H56.148z M51.648,40.95V30c0-1.566-0.424-2.643-1.274-3.225
		C49.523,26.191,47.766,25.9,45.1,25.9c-2.5,0-4.135,0.283-4.899,0.85c-0.767,0.566-1.15,1.65-1.15,3.25v10.95
		c0,1.667,0.408,2.759,1.226,3.274c0.815,0.518,2.459,0.773,4.926,0.773c2.266,0,3.908-0.273,4.925-0.825
		C51.143,43.624,51.648,42.55,51.648,40.95z"/>
	<path fill="#FFFFFF" d="M68.447,19.25h-4.5v-4.7h4.5V19.25z M68.447,47.5h-4.5V23.3h4.5V47.5z"/>
	<path fill="#FFFFFF" d="M91.447,47.6c-1.6,0.27-3.283,0.4-5.049,0.4c-3.033,0-5.15-0.525-6.353-1.575s-1.8-3.041-1.8-5.975v-14.2
		h-5.398V23.3h5.398v-7.5h4.55v7.5h8.647v2.95h-8.647V40.7c0,1.733,0.333,2.892,1,3.475c0.666,0.584,2.019,0.875,4.052,0.875
		c0.531,0,1.731-0.133,3.6-0.399V47.6L91.447,47.6z"/>
</g>
</svg>
